<svg xmlns="http://www.w3.org/2000/svg" version="1.1" xmlns:xlink="http://www.w3.org/1999/xlink" width="250" height="250"><svg width="250" height="250" viewBox="0 0 250 250" fill="none" xmlns="http://www.w3.org/2000/svg">
<rect x="195.075" width="54.9242" height="54.9243" fill="#EF4444"></rect>
<rect x="56.8184" y="39.7729" width="28.4091" height="28.4091" fill="#EF4444"></rect>
<rect x="181.818" y="164.773" width="28.4091" height="28.4091" fill="#EF4444"></rect>
<rect x="140.152" y="54.9241" width="54.9242" height="54.9243" fill="#EF4444"></rect>
<rect x="28.4082" y="68.1816" width="28.4091" height="28.4091" fill="#EF4444"></rect>
<rect x="153.408" y="193.182" width="28.4091" height="28.4091" fill="#EF4444"></rect>
<rect x="85.2266" width="54.9242" height="54.9243" fill="#EF4444"></rect>
<rect y="39.7729" width="28.4091" height="28.4091" fill="#EF4444"></rect>
<rect x="125" y="164.773" width="28.4091" height="28.4091" fill="#EF4444"></rect>
<rect x="85.2266" y="109.848" width="54.9242" height="54.9243" fill="#EF4444"></rect>
<rect y="96.5908" width="28.4091" height="28.4091" fill="#EF4444"></rect>
<rect x="125" y="221.591" width="28.4091" height="28.4091" fill="#EF4444"></rect>
<rect x="195.075" y="109.848" width="54.9242" height="54.9243" fill="#EF4444"></rect>
<rect x="56.8184" y="96.5908" width="28.4091" height="28.4091" fill="#EF4444"></rect>
<rect x="181.818" y="221.591" width="28.4091" height="28.4091" fill="#EF4444"></rect>
</svg><style>@media (prefers-color-scheme: light) { :root { filter: none; } }
@media (prefers-color-scheme: dark) { :root { filter: none; } }
</style></svg>